<svg width="143" height="44" viewBox="0 0 143 44" fill="none" xmlns="http://www.w3.org/2000/svg">
<path d="M142.206 38.9255C142.206 41.2704 140.385 43.1697 138.133 43.1697H4.87186C2.62126 43.1697 0.794434 41.2704 0.794434 38.9255V5.07978C0.794434 2.73607 2.62126 0.830078 4.87186 0.830078H138.132C140.385 0.830078 142.204 2.73607 142.204 5.07978L142.206 38.9255Z" fill="black"/>
<path d="M137.704 0.881377C140.156 0.881377 142.151 2.9535 142.151 5.5V38.5C142.151 41.0465 140.156 43.1186 137.704 43.1186H5.2963C2.84411 43.1186 0.848731 41.0465 0.848731 38.5V5.5C0.848731 2.9535 2.84411 0.881377 5.2963 0.881377H137.704ZM137.704 3.8147e-06H5.2963C2.38466 3.8147e-06 0 2.47638 0 5.5V38.5C0 41.5236 2.38466 44 5.2963 44H137.704C140.615 44 143 41.5236 143 38.5V5.5C143 2.47638 140.615 3.8147e-06 137.704 3.8147e-06Z" fill="#585858"/>
<path d="M31.9132 21.7623C31.8825 18.217 34.7086 16.4922 34.8378 16.4119C33.2373 13.9886 30.7565 13.6575 29.8847 13.6311C27.8012 13.4034 25.7801 14.9258 24.7187 14.9258C23.6362 14.9258 22.0017 13.6531 20.2402 13.6905C17.9734 13.7268 15.8527 15.0897 14.6897 17.2061C12.2894 21.5214 14.0795 27.8629 16.3792 31.351C17.5295 33.0593 18.8737 34.9667 20.6332 34.8996C22.3545 34.8259 22.9974 33.76 25.0746 33.76C27.1328 33.76 27.7366 34.8996 29.5309 34.8567C31.3783 34.8259 32.5414 33.1407 33.6515 31.417C34.9808 29.459 35.5147 27.5307 35.5359 27.4317C35.4925 27.4163 31.9482 26.0116 31.9132 21.7623Z" fill="white"/>
<path d="M28.5236 11.3365C29.4494 10.1342 30.0828 8.49852 29.907 6.83862C28.567 6.90022 26.8913 7.80112 25.9263 8.97702C25.0725 10.0132 24.3099 11.7116 24.5069 13.3088C26.0121 13.4254 27.5575 12.5201 28.5236 11.3365Z" fill="white"/>
<path d="M51.9566 11.0101C51.9566 12.3048 51.5827 13.2794 50.8359 13.9339C50.1442 14.5378 49.1612 14.8403 47.888 14.8403C47.2567 14.8403 46.7165 14.8117 46.2642 14.7545V7.68036C46.8542 7.58136 47.4897 7.53076 48.1761 7.53076C49.389 7.53076 50.3031 7.80466 50.9196 8.35246C51.6102 8.97176 51.9566 9.85726 51.9566 11.0101ZM50.7861 11.042C50.7861 10.2027 50.5722 9.55916 50.1442 9.11036C49.7163 8.66266 49.0913 8.43826 48.2683 8.43826C47.9187 8.43826 47.6211 8.46246 47.3743 8.51306V13.891C47.5109 13.913 47.7609 13.9229 48.1242 13.9229C48.9737 13.9229 49.6294 13.6776 50.0913 13.187C50.5531 12.6964 50.7861 11.9814 50.7861 11.042Z" fill="white"/>
<path d="M58.1631 12.1408C58.1631 12.9383 57.9438 13.5917 57.5053 14.1043C57.0455 14.6311 56.4365 14.8941 55.6759 14.8941C54.9429 14.8941 54.3593 14.6422 53.9239 14.1362C53.4896 13.6313 53.2725 12.9944 53.2725 12.2266C53.2725 11.4236 53.496 10.7647 53.9451 10.2532C54.3942 9.74165 54.998 9.48535 55.7585 9.48535C56.4916 9.48535 57.0805 9.73725 57.5264 10.2422C57.9502 10.7328 58.1631 11.3664 58.1631 12.1408ZM57.0116 12.1782C57.0116 11.6997 56.9121 11.2894 56.714 10.9473C56.481 10.5337 56.1494 10.3269 55.7183 10.3269C55.2723 10.3269 54.9334 10.5337 54.7003 10.9473C54.5012 11.2894 54.4027 11.7063 54.4027 12.1991C54.4027 12.6776 54.5023 13.0879 54.7003 13.43C54.9408 13.8436 55.2755 14.0504 55.7077 14.0504C56.1314 14.0504 56.464 13.8403 56.7034 13.419C56.9089 13.0703 57.0116 12.6567 57.0116 12.1782Z" fill="white"/>
<path d="M66.4842 9.59106L64.9218 14.7765H63.905L63.2577 12.5248C63.0936 11.9627 62.9601 11.4039 62.8563 10.8495H62.8362C62.7398 11.4193 62.6063 11.977 62.4347 12.5248L61.7472 14.7765H60.7187L59.2495 9.59106H60.3903L60.9549 12.0562C61.0916 12.6392 61.2038 13.1947 61.2939 13.7205H61.314C61.3966 13.2871 61.5333 12.7349 61.7261 12.0672L62.4347 9.59216H63.3393L64.0183 12.0144C64.1825 12.6051 64.3159 13.1738 64.4187 13.7216H64.4494C64.5246 13.1881 64.638 12.6194 64.7884 12.0144L65.3943 9.59216H66.4842V9.59106Z" fill="white"/>
<path d="M72.2392 14.7765H71.1291V11.8065C71.1291 10.8913 70.7943 10.4337 70.1228 10.4337C69.7933 10.4337 69.5275 10.5591 69.3209 10.811C69.1165 11.0629 69.0127 11.3599 69.0127 11.6998V14.7754H67.9026V11.0728C67.9026 10.6174 67.8888 10.1235 67.8623 9.58888H68.8379L68.8898 10.3996H68.9205C69.0497 10.1477 69.2425 9.93978 69.4957 9.77368C69.7965 9.58008 70.1333 9.48218 70.502 9.48218C70.968 9.48218 71.3557 9.63838 71.664 9.95188C72.0474 10.3358 72.2392 10.9089 72.2392 11.6701V14.7765V14.7765Z" fill="white"/>
<path d="M75.3004 14.7764H74.1914V7.21167H75.3004V14.7764Z" fill="white"/>
<path d="M81.8364 12.1408C81.8364 12.9383 81.6171 13.5917 81.1786 14.1043C80.7189 14.6311 80.1088 14.8941 79.3493 14.8941C78.6152 14.8941 78.0315 14.6422 77.5972 14.1362C77.1629 13.6313 76.9458 12.9944 76.9458 12.2266C76.9458 11.4236 77.1693 10.7647 77.6184 10.2532C78.0676 9.74165 78.6713 9.48535 79.4308 9.48535C80.1649 9.48535 80.7528 9.73725 81.1998 10.2422C81.6235 10.7328 81.8364 11.3664 81.8364 12.1408ZM80.6839 12.1782C80.6839 11.6997 80.5844 11.2894 80.3863 10.9473C80.1543 10.5337 79.8217 10.3269 79.3916 10.3269C78.9446 10.3269 78.6057 10.5337 78.3737 10.9473C78.1745 11.2894 78.076 11.7063 78.076 12.1991C78.076 12.6776 78.1756 13.0879 78.3737 13.43C78.6141 13.8436 78.9489 14.0504 79.381 14.0504C79.8047 14.0504 80.1363 13.8403 80.3757 13.419C80.5822 13.0703 80.6839 12.6567 80.6839 12.1782Z" fill="white"/>
<path d="M87.2087 14.7763H86.2119L86.1293 14.1791H86.0986C85.7575 14.6554 85.2713 14.8941 84.64 14.8941C84.1686 14.8941 83.7873 14.7368 83.5002 14.4244C83.2397 14.1406 83.1094 13.7875 83.1094 13.3684C83.1094 12.7348 83.3636 12.2519 83.8752 11.9175C84.3858 11.5831 85.104 11.4192 86.0287 11.4269V11.3301C86.0287 10.647 85.6834 10.306 84.9917 10.306C84.4991 10.306 84.0648 10.4347 83.6899 10.6899L83.4642 9.93305C83.9282 9.63495 84.5012 9.48535 85.1771 9.48535C86.4821 9.48535 87.1367 10.2004 87.1367 11.6304V13.54C87.1367 14.0581 87.161 14.4706 87.2087 14.7763ZM86.0562 12.9944V12.1947C84.8317 12.1727 84.2195 12.5214 84.2195 13.2397C84.2195 13.5103 84.2894 13.7127 84.4324 13.848C84.5754 13.9833 84.7576 14.0504 84.9747 14.0504C85.2184 14.0504 85.4461 13.9701 85.6537 13.8106C85.8624 13.65 85.9906 13.4465 86.0382 13.1968C86.0499 13.1407 86.0562 13.0725 86.0562 12.9944Z" fill="white"/>
<path d="M93.5167 14.7764H92.5316L92.4796 13.9437H92.4489C92.1343 14.5773 91.5983 14.8941 90.8452 14.8941C90.2436 14.8941 89.7425 14.6488 89.3453 14.1582C88.9481 13.6676 88.75 13.0307 88.75 12.2486C88.75 11.4093 88.965 10.7295 89.3972 10.2103C89.8156 9.72627 90.3283 9.48427 90.9384 9.48427C91.6089 9.48427 92.0782 9.71857 92.3451 10.1883H92.3663V7.21167H93.4775V13.3794C93.4775 13.8843 93.4902 14.3496 93.5167 14.7764ZM92.3663 12.5896V11.725C92.3663 11.5754 92.3557 11.4544 92.3356 11.362C92.2731 11.0848 92.1386 10.8516 91.9341 10.6635C91.7276 10.4754 91.4786 10.3808 91.1916 10.3808C90.7774 10.3808 90.4533 10.5513 90.2149 10.8934C89.9787 11.2355 89.859 11.6722 89.859 12.2057C89.859 12.7183 89.9724 13.1341 90.2001 13.4542C90.4406 13.7952 90.7647 13.9657 91.1704 13.9657C91.5348 13.9657 91.8261 13.8238 92.0475 13.5389C92.2614 13.276 92.3663 12.9592 92.3663 12.5896Z" fill="white"/>
<path d="M103.011 12.1408C103.011 12.9383 102.791 13.5917 102.353 14.1043C101.893 14.6311 101.285 14.8941 100.524 14.8941C99.7916 14.8941 99.208 14.6422 98.7716 14.1362C98.3373 13.6313 98.1201 12.9944 98.1201 12.2266C98.1201 11.4236 98.3436 10.7647 98.7927 10.2532C99.2419 9.74165 99.8456 9.48535 100.607 9.48535C101.339 9.48535 101.929 9.73725 102.374 10.2422C102.798 10.7328 103.011 11.3664 103.011 12.1408ZM101.86 12.1782C101.86 11.6997 101.761 11.2894 101.563 10.9473C101.329 10.5337 100.998 10.3269 100.566 10.3269C100.121 10.3269 99.7821 10.5337 99.548 10.9473C99.3489 11.2894 99.2503 11.7063 99.2503 12.1991C99.2503 12.6776 99.3499 13.0879 99.548 13.43C99.7884 13.8436 100.123 14.0504 100.555 14.0504C100.979 14.0504 101.313 13.8403 101.552 13.419C101.757 13.0703 101.86 12.6567 101.86 12.1782Z" fill="white"/>
<path d="M108.98 14.7765H107.871V11.8065C107.871 10.8913 107.536 10.4337 106.863 10.4337C106.534 10.4337 106.268 10.5591 106.063 10.811C105.857 11.0629 105.754 11.3599 105.754 11.6998V14.7754H104.643V11.0728C104.643 10.6174 104.63 10.1235 104.604 9.58888H105.579L105.63 10.3996H105.661C105.791 10.1477 105.984 9.93978 106.236 9.77368C106.538 9.58008 106.874 9.48218 107.244 9.48218C107.709 9.48218 108.096 9.63838 108.405 9.95188C108.789 10.3358 108.98 10.9089 108.98 11.6701V14.7765V14.7765Z" fill="white"/>
<path d="M116.451 10.4545H115.228V12.9735C115.228 13.6137 115.446 13.9338 115.876 13.9338C116.075 13.9338 116.24 13.9162 116.37 13.8799L116.399 14.7544C116.18 14.8402 115.892 14.8831 115.537 14.8831C115.098 14.8831 114.757 14.7445 114.51 14.4673C114.262 14.1901 114.139 13.7237 114.139 13.0692V10.4545H113.41V9.59096H114.139V8.64056L115.227 8.29956V9.58986H116.45V10.4545H116.451Z" fill="white"/>
<path d="M122.327 14.7764H121.216V11.8284C121.216 10.8989 120.881 10.4336 120.211 10.4336C119.696 10.4336 119.344 10.7031 119.152 11.2421C119.119 11.3554 119.1 11.494 119.1 11.6568V14.7753H117.991V7.21167H119.1V10.3368H119.121C119.471 9.76807 119.972 9.48427 120.621 9.48427C121.081 9.48427 121.461 9.64047 121.763 9.95397C122.139 10.3445 122.327 10.9253 122.327 11.6931V14.7764V14.7764Z" fill="white"/>
<path d="M128.39 11.9385C128.39 12.1453 128.375 12.3191 128.348 12.461H125.019C125.034 12.9736 125.193 13.3641 125.501 13.6347C125.783 13.8767 126.146 13.9977 126.591 13.9977C127.083 13.9977 127.533 13.9163 127.937 13.7524L128.111 14.5532C127.637 14.7666 127.08 14.8733 126.435 14.8733C125.662 14.8733 125.053 14.6368 124.612 14.1638C124.169 13.6908 123.95 13.0561 123.95 12.2597C123.95 11.4776 124.155 10.8264 124.567 10.3072C124.997 9.75279 125.578 9.47559 126.312 9.47559C127.031 9.47559 127.576 9.75279 127.945 10.3072C128.242 10.7472 128.39 11.2917 128.39 11.9385ZM127.33 11.6404C127.339 11.2983 127.266 11.0035 127.115 10.7549C126.922 10.4348 126.629 10.2742 126.232 10.2742C125.87 10.2742 125.574 10.4304 125.348 10.7439C125.164 10.9936 125.055 11.2917 125.019 11.6404H127.33Z" fill="white"/>
<path d="M56.8241 34.6544H54.4185L53.1008 30.3545H48.5206L47.2654 34.6544H44.9233L49.4612 20.0156H52.264L56.8241 34.6544ZM52.7036 28.5505L51.5119 24.728C51.3859 24.3375 51.1497 23.4179 50.8012 21.9703H50.7588C50.62 22.5929 50.3965 23.5125 50.0893 24.728L48.9189 28.5505H52.7036V28.5505Z" fill="white"/>
<path d="M68.4942 29.2468C68.4942 31.042 68.027 32.461 67.0928 33.5027C66.256 34.43 65.2168 34.8931 63.9764 34.8931C62.6375 34.8931 61.6757 34.3937 61.09 33.3949H61.0476V38.9554H58.7892V27.5737C58.7892 26.4451 58.7606 25.2868 58.7056 24.0988H60.6917L60.8177 25.7719H60.8601C61.6132 24.5113 62.7562 23.8821 64.29 23.8821C65.4891 23.8821 66.4901 24.3738 67.2909 25.3583C68.0938 26.3439 68.4942 27.6397 68.4942 29.2468ZM66.1935 29.3326C66.1935 28.3052 65.971 27.4582 65.524 26.7916C65.0357 26.0964 64.38 25.7488 63.558 25.7488C63.0009 25.7488 62.4945 25.9424 62.0422 26.3241C61.5889 26.7091 61.2923 27.2118 61.1535 27.8344C61.0836 28.1248 61.0486 28.3624 61.0486 28.5494V30.3094C61.0486 31.0772 61.2753 31.7251 61.7287 32.2542C62.1821 32.7833 62.771 33.0473 63.4955 33.0473C64.3461 33.0473 65.0082 32.7063 65.4816 32.0265C65.9562 31.3456 66.1935 30.448 66.1935 29.3326Z" fill="white"/>
<path d="M80.185 29.2468C80.185 31.042 79.7179 32.461 78.7826 33.5027C77.9468 34.43 76.9077 34.8931 75.6673 34.8931C74.3284 34.8931 73.3666 34.3937 72.7819 33.3949H72.7395V38.9554H70.4811V27.5737C70.4811 26.4451 70.4525 25.2868 70.3975 24.0988H72.3836L72.5096 25.7719H72.552C73.3041 24.5113 74.447 23.8821 75.9819 23.8821C77.1799 23.8821 78.1809 24.3738 78.9838 25.3583C79.7836 26.3439 80.185 27.6397 80.185 29.2468ZM77.8843 29.3326C77.8843 28.3052 77.6608 27.4582 77.2138 26.7916C76.7255 26.0964 76.0719 25.7488 75.2489 25.7488C74.6906 25.7488 74.1854 25.9424 73.732 26.3241C73.2787 26.7091 72.9831 27.2118 72.8443 27.8344C72.7755 28.1248 72.7395 28.3624 72.7395 28.5494V30.3094C72.7395 31.0772 72.9662 31.7251 73.4174 32.2542C73.8708 32.7822 74.4597 33.0473 75.1864 33.0473C76.037 33.0473 76.699 32.7063 77.1725 32.0265C77.647 31.3456 77.8843 30.448 77.8843 29.3326Z" fill="white"/>
<path d="M93.2565 30.5491C93.2565 31.7943 92.8402 32.8074 92.0044 33.5895C91.0861 34.4442 89.8075 34.871 88.1646 34.871C86.6478 34.871 85.4317 34.5674 84.5112 33.9591L85.0345 32.0044C86.026 32.627 87.1138 32.9394 88.2991 32.9394C89.1497 32.9394 89.8118 32.7392 90.2874 32.341C90.7609 31.9428 90.9971 31.4082 90.9971 30.7416C90.9971 30.1476 90.8022 29.6471 90.4113 29.2412C90.0226 28.8353 89.3732 28.458 88.4665 28.1093C85.9984 27.1534 84.7655 25.7531 84.7655 23.9117C84.7655 22.7083 85.1976 21.7216 86.063 20.9538C86.9253 20.1849 88.0756 19.801 89.5141 19.801C90.7969 19.801 91.8625 20.0331 92.7131 20.4962L92.1485 22.408C91.354 21.9592 90.4558 21.7348 89.4506 21.7348C88.6561 21.7348 88.0354 21.9383 87.5905 22.3431C87.2145 22.705 87.0259 23.1461 87.0259 23.6686C87.0259 24.2472 87.2409 24.7257 87.6731 25.1019C88.0492 25.4495 88.7324 25.8257 89.7238 26.2316C90.9367 26.7387 91.8275 27.3316 92.4006 28.0114C92.9715 28.689 93.2565 29.5371 93.2565 30.5491Z" fill="white"/>
<path d="M100.723 25.8586H98.2338V30.9835C98.2338 32.287 98.6723 32.9382 99.5515 32.9382C99.9551 32.9382 100.29 32.9019 100.555 32.8293L100.617 34.6102C100.172 34.7829 99.5864 34.8698 98.8608 34.8698C97.9689 34.8698 97.272 34.5871 96.7688 34.0228C96.2678 33.4574 96.0157 32.5092 96.0157 31.1771V25.8564H94.5327V24.0964H96.0157V22.1637L98.2338 21.4685V24.0964H100.723V25.8586Z" fill="white"/>
<path d="M111.955 29.2896C111.955 30.9121 111.508 32.2442 110.616 33.2859C109.68 34.3584 108.439 34.893 106.891 34.893C105.4 34.893 104.212 34.3793 103.327 33.3519C102.441 32.3245 101.999 31.0276 101.999 29.4645C101.999 27.8288 102.454 26.489 103.368 25.4473C104.28 24.4045 105.511 23.8831 107.059 23.8831C108.55 23.8831 109.75 24.3968 110.656 25.4253C111.522 26.423 111.955 27.7111 111.955 29.2896ZM109.611 29.3655C109.611 28.392 109.411 27.5571 109.006 26.8608C108.532 26.0182 107.855 25.598 106.978 25.598C106.07 25.598 105.381 26.0193 104.907 26.8608C104.502 27.5582 104.301 28.4063 104.301 29.4095C104.301 30.383 104.502 31.2179 104.907 31.9131C105.396 32.7557 106.078 33.1759 106.958 33.1759C107.82 33.1759 108.497 32.7469 108.985 31.8911C109.402 31.1816 109.611 30.3379 109.611 29.3655Z" fill="white"/>
<path d="M119.295 26.1613C119.072 26.1184 118.833 26.0964 118.583 26.0964C117.789 26.0964 117.175 26.4077 116.742 27.0314C116.366 27.5814 116.178 28.2766 116.178 29.1159V34.6544H113.92L113.942 27.423C113.942 26.2064 113.913 25.0987 113.857 24.0999H115.824L115.907 26.1195H115.969C116.207 25.4254 116.583 24.8666 117.098 24.4475C117.601 24.0702 118.145 23.8821 118.731 23.8821C118.939 23.8821 119.128 23.8975 119.295 23.925V26.1613Z" fill="white"/>
<path d="M129.395 28.8772C129.395 29.2974 129.369 29.6516 129.313 29.9409H122.538C122.564 30.9837 122.891 31.7812 123.521 32.3312C124.091 32.8229 124.83 33.0693 125.736 33.0693C126.74 33.0693 127.655 32.9032 128.478 32.5699L128.832 34.1979C127.87 34.6335 126.734 34.8502 125.424 34.8502C123.848 34.8502 122.611 34.3684 121.71 33.4059C120.812 32.4434 120.362 31.1509 120.362 29.5295C120.362 27.9378 120.78 26.6123 121.618 25.5552C122.495 24.4266 123.68 23.8623 125.172 23.8623C126.637 23.8623 127.746 24.4266 128.499 25.5552C129.095 26.4517 129.395 27.5605 129.395 28.8772ZM127.242 28.2689C127.257 27.5737 127.109 26.9731 126.803 26.466C126.412 25.8137 125.812 25.4881 125.003 25.4881C124.265 25.4881 123.665 25.806 123.206 26.444C122.83 26.9511 122.606 27.5594 122.538 28.2678H127.242V28.2689Z" fill="white"/>
</svg>
