<svg width="135" height="44" viewBox="0 0 135 44" fill="none" xmlns="http://www.w3.org/2000/svg">
<path d="M130 44H5C2.25125 44 0 41.5236 0 38.5V5.5C0 2.47638 2.25125 -9.53674e-07 5 -9.53674e-07H130C132.749 -9.53674e-07 135 2.47638 135 5.5V38.5C135 41.5236 132.749 44 130 44Z" fill="black"/>
<path d="M130 0.881371C132.315 0.881371 134.199 2.9535 134.199 5.5V38.5C134.199 41.0465 132.315 43.1186 130 43.1186H5C2.685 43.1186 0.80125 41.0465 0.80125 38.5V5.5C0.80125 2.9535 2.685 0.881371 5 0.881371H130ZM130 -9.53674e-07H5C2.25125 -9.53674e-07 0 2.47638 0 5.5V38.5C0 41.5236 2.25125 44 5 44H130C132.749 44 135 41.5236 135 38.5V5.5C135 2.47638 132.749 -9.53674e-07 130 -9.53674e-07Z" fill="#585858"/>
<path d="M9.68494 8.29261C9.39119 8.63086 9.22119 9.15748 9.22119 9.83948V34.166C9.22119 34.848 9.39119 35.3746 9.68494 35.7129L9.75744 35.7871L22.1499 22.1609V21.8391L9.75744 8.21286L9.68494 8.29261Z" fill="white"/>
<path d="M27.7762 26.7051L23.6499 22.1607V21.839L27.7812 17.2946L27.8737 17.3537L32.7662 20.4158C34.1624 21.2848 34.1624 22.7148 32.7662 23.5893L27.8737 26.646L27.7762 26.7051Z" fill="white"/>
<path d="M27.1238 27.4922L22.9001 22.846L10.4351 36.5589C10.8988 37.0952 11.6551 37.1598 12.5151 36.6235L27.1238 27.4922Z" fill="white"/>
<path d="M27.1238 16.5077L12.5151 7.37631C11.6551 6.84556 10.8988 6.91019 10.4351 7.44644L22.9001 21.1538L27.1238 16.5077Z" fill="white"/>
<path d="M47.4175 11.2681C47.4175 12.1866 47.1675 12.9223 46.675 13.4709C46.1088 14.1213 45.3713 14.4485 44.4675 14.4485C43.6038 14.4485 42.8663 14.1158 42.2613 13.4599C41.655 12.7944 41.3525 11.9776 41.3525 11C41.3525 10.0224 41.655 9.20564 42.2613 8.54564C42.8663 7.88426 43.6038 7.55151 44.4675 7.55151C44.8975 7.55151 45.3075 7.64914 45.6988 7.83064C46.0888 8.01351 46.4063 8.26101 46.6363 8.56626L46.1138 9.14651C45.7125 8.62539 45.1663 8.36826 44.4675 8.36826C43.8375 8.36826 43.2913 8.61026 42.8275 9.09839C42.3688 9.58789 42.1388 10.2218 42.1388 11C42.1388 11.7783 42.3688 12.4176 42.8275 12.9071C43.2913 13.3898 43.8375 13.6373 44.4675 13.6373C45.1363 13.6373 45.6988 13.3898 46.1425 12.9016C46.435 12.5785 46.6013 12.133 46.645 11.5638H44.4675V10.769H47.3725C47.4075 10.9409 47.4175 11.1073 47.4175 11.2681Z" fill="white" stroke="white" stroke-width="0.16" stroke-miterlimit="10"/>
<path d="M52.0262 8.51251H49.2974V10.6025H51.7574V11.3973H49.2974V13.4873H52.0262V14.2971H48.5249V7.70264H52.0262V8.51251Z" fill="white" stroke="white" stroke-width="0.16" stroke-miterlimit="10"/>
<path d="M55.2788 14.2971H54.5063V8.51251H52.8325V7.70264H56.9538V8.51251H55.2788V14.2971Z" fill="white" stroke="white" stroke-width="0.16" stroke-miterlimit="10"/>
<path d="M59.9365 14.2971V7.70264H60.7078V14.2971H59.9365Z" fill="white" stroke="white" stroke-width="0.16" stroke-miterlimit="10"/>
<path d="M64.1264 14.2971H63.3602V8.51251H61.6802V7.70264H65.8064V8.51251H64.1264V14.2971Z" fill="white" stroke="white" stroke-width="0.16" stroke-miterlimit="10"/>
<path d="M73.609 13.4489C73.0177 14.1158 72.2852 14.4485 71.4114 14.4485C70.5327 14.4485 69.8002 14.1158 69.2089 13.4489C68.6189 12.7834 68.3252 11.9666 68.3252 11C68.3252 10.0334 68.6189 9.21664 69.2089 8.55114C69.8002 7.88426 70.5327 7.55151 71.4114 7.55151C72.2802 7.55151 73.0127 7.88426 73.604 8.55664C74.199 9.22764 74.4927 10.0389 74.4927 11C74.4927 11.9666 74.199 12.7834 73.609 13.4489ZM69.7802 12.8961C70.2252 13.3898 70.7664 13.6373 71.4114 13.6373C72.0514 13.6373 72.5977 13.3898 73.0377 12.8961C73.4815 12.4025 73.7064 11.7686 73.7064 11C73.7064 10.2314 73.4815 9.59751 73.0377 9.10389C72.5977 8.61026 72.0514 8.36276 71.4114 8.36276C70.7664 8.36276 70.2252 8.61026 69.7802 9.10389C69.3364 9.59751 69.1114 10.2314 69.1114 11C69.1114 11.7686 69.3364 12.4025 69.7802 12.8961Z" fill="white" stroke="white" stroke-width="0.16" stroke-miterlimit="10"/>
<path d="M75.5762 14.2971V7.70264H76.5137L79.4287 12.8314H79.4624L79.4287 11.5636V7.70264H80.1999V14.2971H79.3949L76.3424 8.91539H76.3087L76.3424 10.1886V14.2971H75.5762Z" fill="white" stroke="white" stroke-width="0.16" stroke-miterlimit="10"/>
<path d="M68.135 23.9279C65.7863 23.9279 63.8675 25.8941 63.8675 28.607C63.8675 31.2979 65.7863 33.2847 68.135 33.2847C70.4888 33.2847 72.4075 31.2979 72.4075 28.607C72.4075 25.8941 70.4888 23.9279 68.135 23.9279ZM68.135 31.4422C66.8463 31.4422 65.7375 30.2721 65.7375 28.607C65.7375 26.9199 66.8463 25.7704 68.135 25.7704C69.4238 25.7704 70.5375 26.9199 70.5375 28.607C70.5375 30.2721 69.4238 31.4422 68.135 31.4422ZM58.8238 23.9279C56.47 23.9279 54.5563 25.8941 54.5563 28.607C54.5563 31.2979 56.47 33.2847 58.8238 33.2847C61.1763 33.2847 63.0913 31.2979 63.0913 28.607C63.0913 25.8941 61.1763 23.9279 58.8238 23.9279ZM58.8238 31.4422C57.5338 31.4422 56.4213 30.2721 56.4213 28.607C56.4213 26.9199 57.5338 25.7704 58.8238 25.7704C60.1125 25.7704 61.2213 26.9199 61.2213 28.607C61.2213 30.2721 60.1125 31.4422 58.8238 31.4422ZM47.7438 25.362V27.3502H52.06C51.9338 28.4612 51.5963 29.278 51.0788 29.8472C50.4488 30.5347 49.4675 31.2979 47.7438 31.2979C45.0875 31.2979 43.0075 28.9397 43.0075 26.0179C43.0075 23.096 45.0875 20.7379 47.7438 20.7379C49.18 20.7379 50.225 21.3552 50.9963 22.1555L52.27 20.7544C51.1913 19.6214 49.7563 18.751 47.7438 18.751C44.1013 18.751 41.04 22.0111 41.04 26.0179C41.04 30.0246 44.1013 33.2847 47.7438 33.2847C49.7125 33.2847 51.1913 32.5752 52.3538 31.2442C53.545 29.9339 53.9163 28.0914 53.9163 26.6036C53.9163 26.1416 53.8813 25.7167 53.8188 25.362H47.7438ZM93.0513 26.9034C92.7 25.857 91.6163 23.9279 89.4088 23.9279C87.2213 23.9279 85.4 25.824 85.4 28.607C85.4 31.2277 87.2025 33.2847 89.6188 33.2847C91.5725 33.2847 92.7 31.9744 93.1638 31.2112L91.7138 30.1484C91.23 30.9266 90.5713 31.4422 89.6188 31.4422C88.6725 31.4422 87.9938 30.9651 87.5588 30.0246L93.2475 27.4355L93.0513 26.9034ZM87.2513 28.4612C87.2025 26.6572 88.525 25.7332 89.4725 25.7332C90.215 25.7332 90.845 26.1416 91.055 26.726L87.2513 28.4612ZM82.6275 33.0001H84.4975V19.2501H82.6275V33.0001ZM79.565 24.9701H79.5025C79.0825 24.4229 78.2813 23.9279 77.2663 23.9279C75.1363 23.9279 73.1888 25.9849 73.1888 28.6221C73.1888 31.2442 75.1363 33.2847 77.2663 33.2847C78.2813 33.2847 79.0825 32.7856 79.5025 32.2219H79.565V32.8929C79.565 34.6817 78.6963 35.6429 77.295 35.6429C76.1525 35.6429 75.4438 34.7354 75.1513 33.9722L73.525 34.7189C73.9938 35.9591 75.235 37.4854 77.295 37.4854C79.4875 37.4854 81.3375 36.0664 81.3375 32.6137V24.2125H79.565V24.9701ZM77.4263 31.4422C76.1375 31.4422 75.0588 30.2556 75.0588 28.6221C75.0588 26.9735 76.1375 25.7704 77.4263 25.7704C78.6963 25.7704 79.6975 26.9735 79.6975 28.6221C79.6975 30.2556 78.6963 31.4422 77.4263 31.4422ZM101.806 19.2501H97.3338V33.0001H99.1988V27.7902H101.806C103.878 27.7902 105.909 26.1416 105.909 23.5195C105.909 20.8987 103.873 19.2501 101.806 19.2501ZM101.855 25.8776H99.1988V21.1627H101.855C103.248 21.1627 104.043 22.4346 104.043 23.5195C104.043 24.5837 103.248 25.8776 101.855 25.8776ZM113.384 23.9017C112.036 23.9017 110.635 24.5562 110.059 26.0069L111.714 26.77C112.07 26.0069 112.725 25.7594 113.418 25.7594C114.385 25.7594 115.366 26.3987 115.381 27.5276V27.672C115.044 27.4575 114.321 27.1399 113.433 27.1399C111.65 27.1399 109.834 28.2192 109.834 30.2336C109.834 32.0761 111.294 33.2627 112.935 33.2627C114.19 33.2627 114.883 32.6399 115.318 31.9152H115.381V32.9781H117.183V27.7036C117.183 25.2657 115.528 23.9017 113.384 23.9017ZM113.159 31.4367C112.549 31.4367 111.699 31.104 111.699 30.2721C111.699 29.2079 112.759 28.7995 113.676 28.7995C114.498 28.7995 114.883 28.9989 115.381 29.2615C115.235 30.5347 114.239 31.4367 113.159 31.4367ZM123.745 24.2029L121.601 30.1635H121.538L119.321 24.2029H117.31L120.64 32.5326L118.74 37.1677H120.689L125.82 24.2029H123.745ZM106.934 33.0001H108.804V19.2501H106.934V33.0001Z" fill="white"/>
</svg>
