<svg width="91" height="27" viewBox="0 0 91 27" fill="none" xmlns="http://www.w3.org/2000/svg">
<path fill-rule="evenodd" clip-rule="evenodd" d="M15.0685 2.92849C15.7761 2.92426 17.8789 2.73487 18.7696 5.74105C19.3696 7.76605 20.3254 11.0831 21.6369 15.6922H22.1711C23.5776 10.833 24.5437 7.51591 25.0696 5.74105C25.9696 2.70355 28.2196 2.92855 29.1196 2.92855L36.0633 2.92856V24.5285H28.9861V11.7993H28.5115L24.5663 24.5285H19.2416L15.2964 11.7899H14.8219V24.5285H7.74463V2.92856L15.0685 2.92849ZM46.2261 2.92856V15.6672H46.7907L51.5897 5.19231C52.5212 3.10777 54.5067 2.92856 54.5067 2.92856H61.3553V24.5286H54.1303V11.7899H53.5657L48.8608 22.2648C47.9293 24.3399 45.8497 24.5286 45.8497 24.5286H39.0011V2.92856H46.2261ZM86.3282 13.193C85.3204 16.0489 82.1555 18.0943 78.6515 18.0943H71.0746V24.5286H64.204V13.193H86.3282Z" fill="#343434"/>
<path fill-rule="evenodd" clip-rule="evenodd" d="M78.9828 2.92871H63.8438C64.204 7.7376 68.3453 11.8543 72.6324 11.8543H86.8056C87.6235 7.85757 84.8079 2.92871 78.9828 2.92871Z" fill="#4F4F4F"/>
</svg>
