<?xml version="1.0" encoding="utf-8"?>
<!-- Generator: Adobe Illustrator 27.0.1, SVG Export Plug-In . SVG Version: 6.00 Build 0)  -->
<svg version="1.1" id="Слой_1" xmlns="http://www.w3.org/2000/svg" xmlns:xlink="http://www.w3.org/1999/xlink" x="0px" y="0px"
	 width="135px" height="44px" viewBox="0 0 135 44" style="enable-background:new 0 0 135 44;" xml:space="preserve">
<style type="text/css">
	.st0{fill:#585858;}
	.st1{display:none;}
	.st2{display:inline;}
	.st3{fill:#FFFFFF;}
	.st4{display:none;fill:#FFFFFF;enable-background:new    ;}
	.st5{font-family:'Roboto-Regular';}
	.st6{font-size:10.7244px;}
	.st7{font-size:19.5098px;}
	.st8{display:inline;fill:#FFFFFF;}
</style>
<path d="M130,44H5c-2.7,0-5-2.5-5-5.5v-33C0,2.5,2.3,0,5,0h125c2.7,0,5,2.5,5,5.5v33C135,41.5,132.7,44,130,44z"/>
<path class="st0" d="M130,0.9c2.3,0,4.2,2.1,4.2,4.6v33c0,2.5-1.9,4.6-4.2,4.6H5c-2.3,0-4.2-2.1-4.2-4.6v-33C0.8,3,2.7,0.9,5,0.9
	H130z M130,0H5C2.3,0,0,2.5,0,5.5v33c0,3,2.3,5.5,5,5.5h125c2.7,0,5-2.5,5-5.5v-33C135,2.5,132.7,0,130,0z"/>
<g id="apk" class="st1">
	<g class="st2">
		<polygon class="st3" points="14.8,21.9 14.3,23.4 15.4,23.4 		"/>
		<path class="st3" d="M27.2,27c0.6,0,1-0.4,1-1v-6c0-0.6-0.4-1-1-1h-17c-0.6,0-1,0.4-1,1v6c0,0.6,0.4,1,1,1H27.2z M21,21h0.8v1.7
			l1.6-1.7h1.1L23,22.5l1.6,2.4h-1l-1.1-1.8l-0.6,0.7V25H21V21z M17.3,21h1.3c0.3,0,0.6,0,0.9,0.1c0.2,0.1,0.4,0.2,0.6,0.4
			c0.2,0.2,0.2,0.5,0.2,0.8c0,0.2,0,0.4-0.1,0.6s-0.2,0.3-0.3,0.4c-0.1,0.1-0.3,0.2-0.4,0.2c-0.3,0-0.5,0.1-0.8,0.1h-0.5v1.5h-0.8
			L17.3,21z M14.4,21h0.8l1.6,3.9H16L15.7,24H14l-0.3,0.9h-0.8L14.4,21z"/>
		<path class="st3" d="M19.1,22.7c0.1,0,0.2-0.1,0.2-0.2c0.1-0.1,0.1-0.2,0.1-0.3c0-0.1,0-0.3-0.1-0.4s-0.2-0.2-0.3-0.2
			c-0.2,0-0.4,0-0.6,0H18v1.1h0.4C18.7,22.8,18.9,22.8,19.1,22.7z"/>
		<path class="st3" d="M29.2,7h-17c-1.1,0-2,0.9-2,2v9h1V9c0-0.6,0.4-1,1-1h17c0.6,0,1,0.4,1,1v20.9V30h-4.5c-0.8,0-1.5,0.7-1.5,1.5
			V36h-0.1H12.2c-0.6,0-1-0.4-1-1v-7h-1v7c0,1.1,0.9,2,2,2h11.9c0.5,0,1-0.2,1.4-0.6l5.1-5.1c0.4-0.4,0.6-0.9,0.6-1.4V9
			C31.2,7.9,30.3,7,29.2,7z"/>
	</g>
</g>
<text transform="matrix(1 0 0 1 41.3525 14.6895)" class="st4 st5 st6">Download</text>
<text transform="matrix(1 0 0 1 40.2188 33.1221)" class="st4 st5 st7">APK file</text>
<g class="st1">
	<path class="st8" d="M42.2,14.7V7.1h2.2c0.7,0,1.3,0.1,1.8,0.4s0.9,0.7,1.2,1.3c0.3,0.5,0.4,1.2,0.4,1.9v0.5c0,0.7-0.1,1.3-0.4,1.9
		c-0.3,0.5-0.7,1-1.2,1.2c-0.5,0.3-1.1,0.4-1.8,0.4C44.4,14.7,42.2,14.7,42.2,14.7z M43.2,7.9v6h1.1c0.8,0,1.4-0.2,1.8-0.7
		c0.4-0.5,0.6-1.2,0.6-2.1v-0.4c0-0.9-0.2-1.5-0.6-2S45.1,8,44.4,8h-1.2V7.9z"/>
	<path class="st8" d="M48.9,11.8c0-0.6,0.1-1.1,0.3-1.5s0.5-0.8,0.9-1s0.8-0.4,1.3-0.4c0.8,0,1.4,0.3,1.9,0.8s0.7,1.2,0.7,2.1v0.1
		c0,0.6-0.1,1-0.3,1.5c-0.2,0.4-0.5,0.8-0.9,1s-0.8,0.4-1.4,0.4c-0.8,0-1.4-0.3-1.9-0.8S48.9,12.8,48.9,11.8L48.9,11.8z M49.8,11.9
		c0,0.6,0.1,1.1,0.4,1.5c0.3,0.4,0.7,0.6,1.2,0.6s0.9-0.2,1.2-0.6c0.3-0.4,0.4-0.9,0.4-1.6c0-0.6-0.1-1.1-0.4-1.5s-0.7-0.6-1.2-0.6
		s-0.9,0.2-1.2,0.6C50,10.7,49.8,11.2,49.8,11.9z"/>
	<path class="st8" d="M60.3,13.4l1-4.4h1l-1.6,5.7h-0.8l-1.4-4.3l-1.3,4.3h-0.8L54.7,9h1l1.1,4.2L58.1,9h0.8L60.3,13.4z"/>
	<path class="st8" d="M64.2,9v0.7c0.4-0.5,1-0.8,1.7-0.8c1.2,0,1.8,0.7,1.8,2v3.7h-1v-3.7c0-0.4-0.1-0.7-0.3-0.9
		c-0.2-0.2-0.5-0.3-0.9-0.3c-0.3,0-0.6,0.1-0.8,0.3s-0.4,0.4-0.6,0.7v4h-1V9H64.2z"/>
	<path class="st8" d="M70.3,14.7h-1v-8h1V14.7z"/>
	<path class="st8" d="M71.6,11.8c0-0.6,0.1-1.1,0.3-1.5s0.5-0.8,0.9-1s0.8-0.4,1.3-0.4c0.8,0,1.4,0.3,1.9,0.8s0.7,1.2,0.7,2.1v0.1
		c0,0.6-0.1,1-0.3,1.5c-0.2,0.4-0.5,0.8-0.9,1s-0.8,0.4-1.4,0.4c-0.8,0-1.4-0.3-1.9-0.8S71.6,12.8,71.6,11.8L71.6,11.8z M72.5,11.9
		c0,0.6,0.1,1.1,0.4,1.5s0.7,0.6,1.2,0.6s0.9-0.2,1.2-0.6c0.3-0.4,0.4-0.9,0.4-1.6c0-0.6-0.1-1.1-0.4-1.5s-0.7-0.6-1.2-0.6
		s-0.9,0.2-1.2,0.6C72.7,10.7,72.5,11.2,72.5,11.9z"/>
	<path class="st8" d="M81.4,14.7c-0.1-0.1-0.1-0.3-0.1-0.6c-0.5,0.5-1,0.7-1.6,0.7s-1-0.2-1.4-0.5s-0.5-0.7-0.5-1.2
		c0-0.6,0.2-1,0.7-1.4c0.4-0.3,1.1-0.5,1.9-0.5h0.9v-0.4c0-0.3-0.1-0.6-0.3-0.8c-0.2-0.2-0.5-0.3-0.9-0.3c-0.3,0-0.6,0.1-0.9,0.3
		c-0.2,0.2-0.4,0.4-0.4,0.6h-1c0-0.3,0.1-0.6,0.3-0.8c0.2-0.3,0.5-0.5,0.8-0.6C79.2,9,79.6,9,80,9c0.7,0,1.2,0.2,1.5,0.5
		c0.4,0.3,0.6,0.8,0.6,1.3v2.6c0,0.5,0.1,0.9,0.2,1.2v0.1H81.4z M79.8,14c0.3,0,0.6-0.1,0.9-0.2c0.3-0.2,0.5-0.4,0.6-0.6V12h-0.8
		c-1.2,0-1.8,0.3-1.8,1c0,0.3,0.1,0.5,0.3,0.7C79.2,13.9,79.5,14,79.8,14z"/>
	<path class="st8" d="M83.5,11.8c0-0.9,0.2-1.6,0.6-2.1c0.4-0.5,1-0.8,1.6-0.8c0.7,0,1.2,0.2,1.6,0.7v-3h1v8h-0.9V14
		c-0.4,0.5-0.9,0.7-1.6,0.7s-1.2-0.3-1.6-0.8C83.7,13.5,83.5,12.7,83.5,11.8L83.5,11.8z M84.5,11.9c0,0.6,0.1,1.1,0.4,1.5
		s0.6,0.5,1.1,0.5c0.6,0,1.1-0.3,1.3-0.8v-2.6C87,10,86.6,9.7,86,9.7c-0.5,0-0.8,0.2-1.1,0.6C84.6,10.7,84.5,11.2,84.5,11.9z"/>
</g>
<g class="st1">
	<path class="st8" d="M49.3,30.3h-5l-1,2.9h-3l5.2-13.9h2.6l5.2,13.9h-3L49.3,30.3z M45,27.9h3.5l-1.7-5.2L45,27.9z"/>
	<path class="st8" d="M57.4,28.2v4.9h-2.9V19.3H60c1,0,2,0.2,2.7,0.6c0.8,0.4,1.4,0.9,1.8,1.6s0.6,1.5,0.6,2.4
		c0,1.4-0.5,2.4-1.4,3.2c-0.9,0.8-2.2,1.2-3.9,1.2h-2.4V28.2z M57.4,25.9H60c0.8,0,1.3-0.2,1.7-0.5s0.6-0.9,0.6-1.5
		c0-0.7-0.2-1.2-0.6-1.6c-0.4-0.4-1-0.6-1.7-0.6h-2.6V25.9z"/>
	<path class="st8" d="M71.5,27.6L70,29.2v4h-2.9V19.3H70v6.3l1.3-1.7l3.5-4.6h3.5l-4.9,6.2l5.1,7.7h-3.4L71.5,27.6z"/>
	<path class="st8" d="M85,33.1v-8.3h-1.5v-2H85v-0.9c0-1.2,0.3-2.1,1-2.7s1.6-1,2.8-1c0.4,0,0.8,0.1,1.4,0.2v2.1
		c-0.2-0.1-0.5-0.1-0.8-0.1c-1,0-1.6,0.5-1.6,1.5v0.8h2v2h-2V33L85,33.1L85,33.1z"/>
	<path class="st8" d="M91.2,20.1c0-0.4,0.1-0.8,0.4-1s0.7-0.4,1.1-0.4c0.5,0,0.8,0.1,1.1,0.4c0.3,0.3,0.4,0.6,0.4,1s-0.1,0.8-0.4,1
		c-0.3,0.3-0.7,0.4-1.1,0.4c-0.5,0-0.8-0.1-1.1-0.4C91.3,20.9,91.2,20.6,91.2,20.1z M94.1,33.1h-2.8V22.8h2.8V33.1z"/>
	<path class="st8" d="M99.3,33.1h-2.8V18.5h2.8V33.1z"/>
	<path class="st8" d="M106.3,33.3c-1.5,0-2.7-0.5-3.7-1.4s-1.4-2.2-1.4-3.7v-0.3c0-1,0.2-2,0.6-2.8s1-1.4,1.7-1.9s1.6-0.7,2.5-0.7
		c1.4,0,2.5,0.4,3.3,1.3s1.2,2.1,1.2,3.8v1.1H104c0.1,0.7,0.4,1.2,0.8,1.6s1,0.6,1.7,0.6c1.1,0,1.9-0.4,2.5-1.2l1.4,1.5
		c-0.4,0.6-1,1-1.7,1.4C108,33.1,107.2,33.3,106.3,33.3z M106,24.8c-0.5,0-1,0.2-1.3,0.6s-0.6,0.9-0.7,1.6h3.8v-0.2
		c0-0.6-0.2-1.1-0.5-1.4S106.6,24.8,106,24.8z"/>
</g>
<g>
	<g>
		<path class="st3" d="M64.4,24.5l1.7-9.1h2.6l-2.8,12.8h-2.7l-2.1-8.6l-2.1,8.6h-2.7l-2.8-12.8h2.6l1.7,9.1l2.1-9.1h2.2L64.4,24.5z
			"/>
		<path class="st3" d="M70,16.2c0-0.4,0.1-0.7,0.4-0.9c0.3-0.2,0.6-0.4,1-0.4c0.4,0,0.8,0.1,1,0.4s0.4,0.6,0.4,0.9
			c0,0.4-0.1,0.7-0.4,0.9s-0.6,0.4-1,0.4s-0.8-0.1-1-0.4C70.1,16.9,70,16.6,70,16.2z M72.7,28.2h-2.5v-9.5h2.5V28.2z"/>
		<path class="st3" d="M77.1,18.7l0.1,1.1c0.7-0.8,1.6-1.3,2.7-1.3c1,0,1.8,0.3,2.2,0.9s0.7,1.5,0.8,2.7v6.1h-2.5v-6.1
			c0-0.5-0.1-0.9-0.4-1.2s-0.6-0.4-1.2-0.4c-0.7,0-1.3,0.3-1.6,0.9v6.7h-2.5v-9.5H77.1z"/>
		<path class="st3" d="M84.4,23.3c0-1.5,0.3-2.7,1-3.5c0.7-0.9,1.6-1.3,2.7-1.3c0.9,0,1.7,0.3,2.3,1v-4.9H93v13.5h-2.3l-0.1-1
			c-0.6,0.8-1.4,1.2-2.4,1.2c-1.1,0-2-0.4-2.7-1.3C84.8,26.1,84.4,24.9,84.4,23.3z M87,23.5c0,0.9,0.2,1.6,0.5,2.1
			c0.3,0.5,0.8,0.7,1.4,0.7c0.8,0,1.3-0.3,1.7-1v-3.8c-0.3-0.7-0.9-1-1.6-1C87.6,20.5,87,21.5,87,23.5z"/>
		<path class="st3" d="M94.6,23.3c0-0.9,0.2-1.8,0.5-2.5s0.9-1.3,1.6-1.7s1.5-0.6,2.4-0.6c1.3,0,2.3,0.4,3.1,1.2s1.3,1.9,1.4,3.2
			l0,0.7c0,1.5-0.4,2.6-1.2,3.5s-1.9,1.3-3.3,1.3s-2.5-0.4-3.3-1.3c-0.8-0.9-1.2-2.1-1.2-3.6V23.3z M97.1,23.5
			c0,0.9,0.2,1.6,0.5,2.1s0.8,0.7,1.5,0.7c0.6,0,1.1-0.2,1.4-0.7s0.5-1.2,0.5-2.3c0-0.9-0.2-1.6-0.5-2.1c-0.3-0.5-0.8-0.7-1.5-0.7
			c-0.6,0-1.1,0.2-1.4,0.7C97.3,21.7,97.1,22.5,97.1,23.5z"/>
		<path class="st3" d="M113.4,24.7l1.2-6.1h2.5l-2.4,9.5h-2.1l-1.8-6l-1.8,6h-2.1l-2.4-9.5h2.5l1.2,6l1.7-6h1.8L113.4,24.7z"/>
		<path class="st3" d="M123.5,25.5c0-0.3-0.2-0.6-0.5-0.7c-0.3-0.2-0.8-0.3-1.5-0.5c-2.3-0.5-3.4-1.4-3.4-2.9c0-0.8,0.3-1.5,1.1-2.1
			c0.7-0.6,1.6-0.8,2.7-0.8c1.2,0,2.2,0.3,2.9,0.9c0.7,0.6,1.1,1.3,1.1,2.2h-2.5c0-0.4-0.1-0.7-0.4-0.9s-0.6-0.4-1.1-0.4
			c-0.4,0-0.8,0.1-1,0.3s-0.4,0.4-0.4,0.7c0,0.3,0.1,0.5,0.4,0.7c0.3,0.2,0.7,0.3,1.3,0.4s1.2,0.3,1.6,0.4c1.3,0.5,2,1.3,2,2.6
			c0,0.9-0.4,1.6-1.1,2.1s-1.7,0.8-2.9,0.8c-0.8,0-1.5-0.1-2.1-0.4c-0.6-0.3-1.1-0.7-1.5-1.2s-0.5-1-0.5-1.6h2.4
			c0,0.5,0.2,0.8,0.5,1s0.7,0.4,1.2,0.4c0.5,0,0.9-0.1,1.1-0.3S123.5,25.8,123.5,25.5z"/>
	</g>
	<path class="st3" d="M11.8,10.4l12.7-1.7v12.3H11.8V10.4z M26,8.4l16.8-2.5v14.9H26V8.4z M11.8,22.2h12.7v12.3l-12.7-1.8V22.2z
		 M26,22.4h16.8v14.7L26,34.7V22.4z"/>
</g>
</svg>
